<svg viewBox="0 0 32 32" xmlns="http://www.w3.org/2000/svg"><path d="m9 7c-.621094 0-1.226562.066406-1.8125.1875-.292969.058594-.59375.132813-.875.21875-2.519531.796875-4.570312 2.679688-5.59375 5.09375-.113281.269531-.226562.53125-.3125.8125-.269531.851563-.40625 1.746094-.40625 2.6875 0 .929688.144531 1.8125.40625 2.65625.003906.007813-.003906.023438 0 .03125.796875 2.519531 2.679688 4.570313 5.09375 5.59375.269531.113281.53125.226563.8125.3125.851563.269531 1.746094.40625 2.6875.40625h14c4.957031 0 9-4.042969 9-9s-4.042969-9-9-9zm0 2c3.878906 0 7 3.121094 7 7s-3.121094 7-7 7-7-3.121094-7-7c0-.242187.007813-.484375.03125-.71875.355469-3.539062 3.332031-6.28125 6.96875-6.28125zm5.625 0h8.375c3.878906 0 7 3.121094 7 7s-3.121094 7-7 7h-8.375c2.050781-1.652344 3.375-4.171875 3.375-7s-1.324219-5.347656-3.375-7z"/></svg>